<?xml version="1.0" encoding="utf-8"?>
<svg viewBox="229.65 198.047 596.039 669.759" xmlns="http://www.w3.org/2000/svg">
  <path d="M 5589.989 4088.901 L 5600.044 4080.817 C 4912.015 3269.28 4162.931 2385.789 3471.818 1570.687 C 3438.379 1531.405 3384.314 1514.735 3332.835 1528.225 C 3125.911 1582.353 2867.148 1722.176 2537.395 1902.904 C 2211.239 2081.524 1967.089 2254.988 1817.262 2406.242 C 1788.174 2435.599 1779.095 2478.262 1793.193 2516.021 L 2717.098 4975.906 C 2694.503 4823.698 2779.541 4669.196 2900.331 4566.43 C 3020.95 4463.58 3173.432 4403.811 3324.064 4350.989 C 3347.756 4342.704 3371.5 4334.553 3395.295 4326.519 C 3952.872 4137.823 4534.535 4018.403 5121.012 3972.376 C 5252.013 3962.083 5391.184 3957.045 5505.276 4017.952 C 5537.688 4035.308 5566.759 4060.029 5589.989 4088.901" style="fill: rgb(214, 143, 63); fill-opacity: 1; fill-rule: nonzero; stroke: none;" id="path16" transform="matrix(0.133333, 0, 0, -0.133333, 0, 1066.666748)"/>
  <path d="M 5618.717 4337.482 C 5663.138 4270.884 5652.705 4187.483 5611.179 4119.128 C 5604.79 4108.701 5597.663 4098.692 5589.989 4088.901 C 5566.759 4060.029 5537.688 4035.308 5505.276 4017.952 C 5391.184 3957.045 5252.013 3962.083 5121.012 3972.376 C 4534.535 4018.403 3952.872 4137.823 3395.295 4326.519 L 3398.721 4336.795 C 3712.988 4233.527 4052.934 4207.919 4377.085 4263.219 C 4699.797 4318.351 5009.422 4452.065 5338.13 4448.182 C 5443.022 4446.96 5561.534 4423.511 5618.717 4337.482" style="fill: rgb(214, 143, 63); fill-opacity: 1; fill-rule: nonzero; stroke: none;" id="path18" transform="matrix(0.133333, 0, 0, -0.133333, 0, 1066.666748)"/>
  <path d="M 3990.097 4116.835 C 4225.665 4079.076 4459.056 4075.243 4690.769 4136.501 C 4885.428 4187.951 5073.782 4277.663 5275.807 4298.802 C 5297.444 4301.061 5327.868 4297.011 5348.083 4303.522 C 5353.702 4302.049 5355.004 4302.283 5351.989 4304.208 C 5286.446 4351.44 5262.976 4357.55 5281.58 4322.552 C 5276.167 4273.261 5268.904 4240.439 5227.241 4204.488 C 5166.683 4152.201 5082.553 4139.43 5007.64 4148.619 C 4930.739 4158.042 4819.44 4193.994 4723.781 4209.86 C 4606.965 4229.225 4486.603 4234.28 4372.083 4200.22 C 4328.964 4187.399 4338.386 4154.611 4366.07 4129.739 C 4410.439 4089.855 4477.129 4071.862 4534.552 4060.832 C 4750.196 4019.408 4999.143 3981.297 5200.106 4092.315 C 5234.71 4111.446 5275.67 4142.008 5277.315 4184.42 C 5279.885 4250.766 5190.067 4288.96 5139.017 4308.074 C 5016.754 4353.784 4837.598 4366.688 4773.477 4230.397 C 4749.288 4178.98 4900.349 4131.095 4922.499 4125.103 C 5084.626 4081.201 5274.968 4081.419 5402.491 4203.316 C 5449.446 4248.205 5333.539 4299.388 5307.5 4308.911 C 5169.099 4359.541 5018.398 4378.404 4883.835 4309.547 C 4835.217 4284.659 4928.735 4227.953 4940.864 4220.773 C 5036.026 4164.436 5189.193 4125.89 5295.611 4174.444 C 5340.408 4194.881 5329.496 4230.179 5290.369 4254.549 C 5195.857 4313.397 5075.256 4355.407 4961.575 4336.879 C 4900.298 4326.887 4882.91 4291.22 4937.369 4251.586 C 4995.186 4209.542 5099.256 4176.051 5172.302 4187.968 C 5125.295 4202.948 5078.254 4217.928 5031.229 4232.908 C 5029.482 4259.603 5027.734 4286.316 5025.987 4313.012 C 4969.284 4291.069 5006.646 4279.889 5138.109 4279.487 C 5157.107 4249.896 5176.123 4220.304 5195.121 4190.713 C 5243.43 4215.434 5261.297 4189.073 5186.178 4216.539 C 5154.538 4251.737 5122.862 4286.952 5091.205 4322.15 C 5063.709 4295.856 5033.919 4273.261 4997.618 4259.955 C 4985.712 4255.603 4934.577 4251.703 4956.71 4245.712 C 5006.389 4210.614 5056.052 4175.516 5105.714 4140.418 C 5113.303 4156.536 5122.4 4165.992 5135.231 4178.545 C 5139.428 4182.713 5144.345 4185.709 5150.015 4187.516 C 5195.292 4205.793 5156.559 4212.907 5033.799 4208.856 C 5003.323 4227.066 4972.847 4245.26 4942.371 4263.453 C 4959.999 4245.879 4877.034 4204.873 4865.83 4200.086 C 4823.996 4182.244 4779.182 4173.641 4733.802 4171.365 C 4647.925 4167.03 4564.137 4184.738 4479.237 4201.04 C 4533.387 4154.577 4587.538 4108.115 4641.706 4061.652 C 4710.179 4082.022 4779.833 4071.26 4838.044 4057.836 C 4943.279 4033.567 5046.596 4006.905 5154.743 3998.218 C 5311.251 3985.632 5550.159 4010.637 5609.381 4184.219 C 5644.756 4287.956 5546.973 4358.955 5462.038 4396.296 C 5346.952 4446.876 5220.766 4459.395 5095.95 4450.491 C 4911.039 4437.302 4736.731 4373.316 4562.253 4317.163 C 4351.388 4249.293 4155.582 4221.66 3934.782 4257.059 C 3898.464 4262.867 3787.404 4276.977 3797.7 4214.296 C 3807.276 4156.084 3947.047 4123.731 3990.097 4116.835" style="fill: rgb(222, 163, 95); fill-opacity: 1; fill-rule: nonzero; stroke: none;" id="path20" transform="matrix(0.133333, 0, 0, -0.133333, 0, 1066.666748)"/>
  <path d="M 3393.564 4296.007 C 3714.923 4194.78 4053.071 4178.411 4385.188 4233.828 C 4556.463 4262.415 4721.382 4312.761 4888.751 4356.947 C 5047.623 4398.907 5226.899 4445.202 5392.914 4421.77 C 5588.498 4394.171 5552.232 4166.662 5418.971 4080.415 C 5266.043 3981.431 5053.362 4010.989 4881.762 4030.32 C 4497.858 4073.603 4117.74 4139.146 3745.433 4241.226 C 3528.368 4300.743 3292.68 4358.286 3095.709 4467.965 C 2925.119 4562.949 2784.646 4730.421 2810.702 4932.607 C 2816.184 4975.119 2688.524 5009.447 2677.8 4968.608 C 2671.856 4945.913 2667.196 4919.936 2665.997 4896.538 C 2663.821 4854.059 2790.299 4819.329 2798.899 4860.536 C 2803.849 4884.32 2806.899 4908.639 2810.702 4932.607 C 2817.691 4976.575 2684.036 5007.773 2677.8 4968.608 C 2673.997 4944.624 2670.948 4920.321 2665.997 4896.538 C 2710.297 4884.537 2754.598 4872.537 2798.899 4860.536 C 2800.098 4883.968 2804.74 4909.911 2810.702 4932.607 C 2766.401 4944.607 2722.101 4956.591 2677.8 4968.608 C 2622.895 4542.63 3130.313 4367.994 3456.435 4264.223 C 3884.571 4127.965 4322.403 4039.141 4768.355 3981.264 C 4962.603 3956.057 5179.583 3917.997 5373.693 3960.894 C 5530.476 3995.557 5694.813 4108.115 5661.322 4285.412 C 5631.702 4442.29 5439.271 4487.213 5300.938 4493.623 C 5113.286 4502.326 4926.131 4456.517 4746.856 4407.778 C 4528.522 4348.411 4312.895 4290.383 4085.791 4274.081 C 3856.271 4257.612 3628.875 4285.077 3410.01 4354.035 C 3392.93 4359.424 3342.377 4367.793 3335.336 4343.022 C 3328.107 4317.514 3377.924 4300.944 3393.564 4296.007" style="fill: rgb(35, 31, 32); fill-opacity: 1; fill-rule: nonzero; stroke: none;" id="path22" transform="matrix(0.133333, 0, 0, -0.133333, 0, 1066.666748)"/>
  <path d="M 3582.09 3618.501 C 3443.912 3397.286 3305.734 3176.07 3167.556 2954.854 C 3035.854 2744.032 2880.27 2534.717 2788.911 2303.241 C 2778.701 2277.366 2844.638 2258.084 2855.362 2285.249 C 2948.263 2520.674 3108.609 2734.693 3242.641 2949.247 C 3376.125 3162.965 3509.626 3376.682 3643.128 3590.4 C 3660.019 3617.464 3596.292 3641.23 3582.09 3618.501" style="fill: rgb(180, 118, 58); fill-opacity: 1; fill-rule: nonzero; stroke: none;" id="path24" transform="matrix(0.133333, 0, 0, -0.133333, 0, 1066.666748)"/>
  <path d="M 3633.843 3653.85 L 2832.646 2307.744 C 2828.073 2300.045 2812.775 2300.346 2798.213 2308.396 L 2797.682 2308.698 C 2782.693 2316.999 2774.247 2330.305 2778.958 2338.239 L 3580.154 3684.346 C 3584.763 3692.095 3600.232 3691.727 3614.844 3683.559 L 3615.376 3683.241 C 3630.228 3674.939 3638.537 3661.717 3633.843 3653.85" style="fill: rgb(35, 31, 32); fill-opacity: 1; fill-rule: nonzero; stroke: none;" id="path26" transform="matrix(0.133333, 0, 0, -0.133333, 0, 1066.666748)"/>
  <path d="M 4485.506 3268.643 C 4324.27 3068.433 4163.034 2868.206 4001.781 2667.995 C 3844.022 2472.086 3661.612 2280.345 3541.781 2059.112 C 3526.483 2030.877 3590.262 2007.83 3602.819 2031.011 C 3722.649 2252.243 3905.025 2443.968 4062.818 2639.894 C 4224.054 2840.104 4385.291 3040.314 4546.527 3240.542 C 4566.09 3264.827 4502.672 3289.967 4485.506 3268.643" style="fill: rgb(180, 118, 58); fill-opacity: 1; fill-rule: nonzero; stroke: none;" id="path28" transform="matrix(0.133333, 0, 0, -0.133333, 0, 1066.666748)"/>
  <path d="M 3110.202 3946.383 C 2997.258 3716.749 2884.313 3487.131 2771.352 3257.513 C 2660.84 3032.85 2525.352 2806.998 2457.496 2565.664 C 2449.753 2538.165 2516.187 2520.072 2523.93 2547.655 C 2591.803 2789.022 2727.291 3014.824 2837.803 3239.521 C 2950.747 3469.139 3063.708 3698.756 3176.653 3928.374 C 3188.576 3952.626 3123.204 3972.811 3110.202 3946.383" style="fill: rgb(180, 118, 58); fill-opacity: 1; fill-rule: nonzero; stroke: none;" id="path30" transform="matrix(0.133333, 0, 0, -0.133333, 0, 1066.666748)"/>
  <path d="M 2727.343 4227.518 C 2622.193 3989.582 2517.043 3751.663 2411.877 3513.743 C 2312.517 3288.912 2188.832 3061.855 2132.214 2822.162 C 2125.585 2794.16 2192.138 2776.586 2198.665 2804.169 C 2255.283 3043.846 2378.985 3270.936 2478.328 3495.751 C 2583.477 3733.67 2688.644 3971.59 2793.794 4209.509 C 2804.877 4234.615 2739.197 4254.365 2727.343 4227.518" style="fill: rgb(180, 118, 58); fill-opacity: 1; fill-rule: nonzero; stroke: none;" id="path32" transform="matrix(0.133333, 0, 0, -0.133333, 0, 1066.666748)"/>
  <path d="M 4037.533 3424.484 C 3885.427 3212.172 3733.339 2999.861 3581.234 2787.532 C 3436.186 2585.079 3267.909 2385.739 3161.834 2160.222 C 3150.254 2135.618 3215.762 2115.617 3228.285 2142.229 C 3336.09 2371.429 3510.26 2575.187 3657.723 2781.022 C 3804.672 2986.153 3951.604 3191.267 4098.553 3396.382 C 4116.952 3422.057 4053.345 3446.56 4037.533 3424.484" style="fill: rgb(180, 118, 58); fill-opacity: 1; fill-rule: nonzero; stroke: none;" id="path34" transform="matrix(0.133333, 0, 0, -0.133333, 0, 1066.666748)"/>
  <path d="M 2784.097 4241.644 C 2567.888 3767.027 2351.696 3292.41 2135.504 2817.777 C 2131.752 2809.559 2121.902 2805.843 2113.473 2809.475 C 2105.713 2812.822 2097.953 2816.17 2090.192 2819.517 C 2081.712 2823.166 2077.892 2832.84 2081.644 2841.092 C 2298.042 3316.83 2514.422 3792.568 2730.82 4268.307 C 2734.897 4277.295 2746.135 4280.742 2754.752 4275.671 C 2762.324 4271.202 2769.879 4266.75 2777.451 4262.281 C 2784.68 4258.03 2787.524 4249.176 2784.097 4241.644" style="fill: rgb(35, 31, 32); fill-opacity: 1; fill-rule: nonzero; stroke: none;" id="path36" transform="matrix(0.133333, 0, 0, -0.133333, 0, 1066.666748)"/>
  <path d="M 4514.475 3251.622 C 4200.534 2834.832 3886.592 2418.025 3572.668 2001.235 C 3567.186 1993.954 3556.736 1992.415 3549.284 1997.737 C 3542.415 2002.675 3535.563 2007.595 3528.693 2012.533 C 3521.241 2017.872 3519.648 2028.115 3525.113 2035.379 C 3838.9 2452.286 4152.67 2869.193 4466.44 3286.084 C 4471.905 3293.348 4482.354 3294.921 4489.806 3289.582 C 4496.83 3284.561 4503.871 3279.523 4510.895 3274.502 C 4518.346 3269.146 4519.957 3258.902 4514.475 3251.622" style="fill: rgb(35, 31, 32); fill-opacity: 1; fill-rule: nonzero; stroke: none;" id="path38" transform="matrix(0.133333, 0, 0, -0.133333, 0, 1066.666748)"/>
  <path d="M 2396.613 2580.677 C 2631.135 3043.545 2865.675 3506.412 3100.197 3969.28 C 3104.274 3977.347 3114.279 3980.661 3122.553 3976.711 C 3130.553 3972.878 3138.536 3969.045 3146.536 3965.229 C 3154.862 3961.229 3158.288 3951.388 3154.16 3943.27 C 2919.021 3480.704 2683.864 3018.121 2448.725 2555.555 C 2444.631 2547.504 2434.644 2544.19 2426.37 2548.157 C 2418.986 2551.688 2411.62 2555.22 2404.236 2558.752 C 2395.928 2562.752 2392.502 2572.576 2396.613 2580.677" style="fill: rgb(35, 31, 32); fill-opacity: 1; fill-rule: nonzero; stroke: none;" id="path40" transform="matrix(0.133333, 0, 0, -0.133333, 0, 1066.666748)"/>
  <path d="M 3131.924 2166.013 C 3426.045 2593.916 3720.165 3021.803 4014.286 3449.707 C 4019.408 3457.155 4029.704 3459.18 4037.379 3454.259 L 4058.912 3440.401 C 4066.69 3435.413 4068.797 3425.187 4063.606 3417.638 C 3770.256 2990.705 3476.906 2563.756 3183.556 2136.807 C 3178.948 2130.112 3170.006 2127.701 3162.537 2131.133 C 3154.588 2134.798 3146.639 2138.447 3138.69 2142.095 C 3129.423 2146.363 3126.219 2157.695 3131.924 2166.013" style="fill: rgb(35, 31, 32); fill-opacity: 1; fill-rule: nonzero; stroke: none;" id="path42" transform="matrix(0.133333, 0, 0, -0.133333, 0, 1066.666748)"/>
  <path d="M 6009.422 4696.478 C 5864.1 4519.733 5719.978 4342.235 5575.718 4164.787 C 5546.39 4128.384 5516.788 4092.081 5487.323 4055.727 C 5414.191 3965.581 5340.922 3875.484 5267.516 3785.438 C 5179.412 3677.433 5081.286 3576.273 5002.466 3462.26 C 4917.137 3339.007 4823.705 3301.867 4678.76 3363.326 C 3983.296 3658.42 3330.3 4022.805 2730.032 4477.02 C 2658.785 4531.064 2627.658 4584.004 2628.96 4648.442 C 2629.577 4683.356 2639.838 4721.684 2658.339 4765.402 C 2888.442 5311.035 3108.951 5860.45 3339.088 6423.591 C 3951.518 5968.355 4609.38 5622.062 5258.145 5261.894 C 5486.432 5135.127 5719.618 5012.861 5962.158 4916.238 C 6123.685 4851.799 6088.053 4792.198 6009.422 4696.478 M 3716.174 1956.564 C 3641.534 1863.806 3568.574 1828.256 3440.606 1880.359 C 2932.931 2087.415 2462.636 2353.269 2030.234 2685.502 C 1967.261 2733.94 1938.618 2780.453 1937.23 2835.92 C 1936.22 2871.603 1946.498 2911.07 1966.25 2957.214 C 2030.422 3107.598 2093.584 3258.384 2156.146 3409.537 C 2288.191 3728.465 2416.896 4048.631 2543.939 4369.466 C 2589.61 4484.97 2613.371 4502.243 2728.439 4418.188 C 3357.11 3959.07 4035.049 3580.407 4774.899 3267.823 C 4415.886 2823.517 4065.165 2390.66 3716.174 1956.564 M 3526.98 1750.395 C 3477.437 1662.256 3434.01 1499.32 3248.585 1563.624 C 3071.537 1625.167 2901.187 1699.028 2732.585 1787.3 C 2724.379 1791.568 2716.173 1795.853 2707.933 1800.456 C 2693.355 1808.038 2678.742 1815.921 2664.215 1824.055 C 2659.795 1826.315 2655.427 1828.708 2651.093 1831.219 C 2597.336 1860.827 2543.614 1891.991 2489.925 1924.746 C 2454.738 1941.918 2419.688 1960.179 2384.793 1979.56 L 2383.354 1980.397 C 2216.756 2072.954 2055.297 2189.445 1900.279 2313.602 C 1839.721 2362.123 1757.081 2404.317 1791.035 2521.26 C 1823.344 2632.596 1844.672 2687.528 1883.336 2694.624 C 1918.026 2701.068 1966.713 2669.518 2049.917 2606.135 C 2456.486 2296.312 2900.519 2047.413 3375.474 1851.086 C 3436.118 1826.097 3567.477 1822.18 3526.98 1750.395 M 6014.184 4972.056 C 5120.807 5345.765 4291.721 5828.6 3508.924 6389.965 C 4399.338 6011.035 5229.914 5530.811 6014.184 4972.056 M 6098.04 5012.276 C 5694.436 5301.294 5269.846 5557.825 4841.915 5809.988 C 4406.07 6048.677 3968.598 6283.651 3511.511 6482.84 C 3374.926 6542.274 3309.451 6523.98 3256.14 6380.425 C 3020.11 5744.344 2725.955 5131.712 2514.714 4483.865 C 2304.397 3839.148 2016.409 3218.231 1750.897 2591.657 C 1695.616 2461.006 1721.346 2385.254 1822.487 2302.304 C 2240.293 1959.844 2704.644 1698.007 3215.454 1511.739 C 3346.351 1464.038 3424.451 1502.818 3509.181 1603.442 C 4013.584 2201.764 4471.185 2835.551 5020.625 3400.951 C 5427.57 3819.616 5764.416 4303.02 6135.249 4755.41 C 6220.509 4859.599 6213.023 4929.845 6098.04 5012.276" style="fill: rgb(35, 31, 32); fill-opacity: 1; fill-rule: nonzero; stroke: none;" id="path44" transform="matrix(0.133333, 0, 0, -0.133333, 0, 1066.666748)"/>
  <path d="M 2179.462 2688.164 C 2147.667 2688.164 2115.443 2693.252 2087.743 2699.997 C 2054.217 2708.165 1992.495 2735.463 1952.631 2772.553 C 1942.764 2792.687 1937.778 2813.576 1937.23 2835.92 C 1936.22 2871.603 1946.498 2911.07 1966.25 2957.214 C 1992.238 3018.121 2018.071 3079.111 2043.767 3140.169 C 2243.857 3582.533 2443.963 4024.981 2644.052 4467.346 C 2665.603 4460.734 2692.584 4444.382 2728.439 4418.188 C 2813.665 4355.943 2899.817 4295.17 2986.893 4235.853 C 2764.448 3744.047 2542.038 3252.341 2319.592 2760.535 C 2294.581 2705.252 2237.741 2688.164 2179.462 2688.164 M 2132.506 2813.341 C 2136.737 2799.767 2157.791 2790.311 2175.127 2790.311 C 2186.554 2790.311 2196.353 2794.411 2198.665 2804.169 C 2255.283 3043.846 2378.985 3270.936 2478.328 3495.751 C 2583.477 3733.67 2688.644 3971.59 2793.794 4209.509 C 2798.008 4219.032 2791.155 4227.786 2780.38 4233.527 C 2781.631 4236.238 2782.847 4238.933 2784.097 4241.644 C 2787.524 4249.176 2784.68 4258.03 2777.451 4262.281 C 2769.879 4266.75 2762.324 4271.202 2754.752 4275.671 C 2752.028 4277.278 2749.065 4278.031 2746.135 4278.031 C 2739.763 4278.031 2733.613 4274.466 2730.82 4268.307 C 2514.422 3792.568 2298.042 3316.83 2081.644 2841.092 C 2077.892 2832.84 2081.712 2823.166 2090.192 2819.517 C 2097.953 2816.17 2105.713 2812.822 2113.473 2809.475 C 2115.666 2808.538 2117.962 2808.086 2120.206 2808.086 C 2124.848 2808.086 2129.336 2809.977 2132.506 2813.341" style="fill: rgb(202, 159, 108); fill-opacity: 1; fill-rule: nonzero; stroke: none;" id="path46" transform="matrix(0.133333, 0, 0, -0.133333, 0, 1066.666748)"/>
  <path d="M 3005.617 4277.278 C 2912.562 4341.85 2820.706 4408.414 2730.032 4477.02 C 2706.631 4494.778 2687.565 4512.402 2672.558 4530.344 C 2694.862 4579.669 2717.201 4629.077 2739.506 4678.385 C 2810.942 4564.857 2932.931 4479.463 3066.998 4412.983 C 3046.526 4367.709 3026.089 4322.552 3005.617 4277.278" style="fill: rgb(202, 159, 108); fill-opacity: 1; fill-rule: nonzero; stroke: none;" id="path50" transform="matrix(0.133333, 0, 0, -0.133333, 0, 1066.666748)"/>
  <path d="M 3066.998 4412.983 C 2932.931 4479.463 2810.942 4564.857 2739.506 4678.385 C 2763.249 4730.89 2787.01 4783.394 2810.753 4835.899 C 2831.482 4678.469 2951.415 4549.191 3092.643 4469.672 C 3084.111 4450.826 3075.529 4431.829 3066.998 4412.983" style="fill: rgb(93, 93, 97); fill-opacity: 1; fill-rule: nonzero; stroke: none;" id="path52" transform="matrix(0.133333, 0, 0, -0.133333, 0, 1066.666748)"/>
  <path d="M 2175.127 2790.311 C 2157.791 2790.311 2136.737 2799.767 2132.506 2813.341 C 2133.722 2814.613 2134.733 2816.103 2135.504 2817.777 C 2350.462 3289.682 2565.438 3761.621 2780.38 4233.527 C 2791.155 4227.786 2798.008 4219.032 2793.794 4209.509 C 2688.644 3971.59 2583.477 3733.67 2478.328 3495.751 C 2378.985 3270.936 2255.283 3043.846 2198.665 2804.169 C 2196.353 2794.411 2186.554 2790.311 2175.127 2790.311" style="fill: rgb(178, 140, 100); fill-opacity: 1; fill-rule: nonzero; stroke: none;" id="path54" transform="matrix(0.133333, 0, 0, -0.133333, 0, 1066.666748)"/>
  <path d="M 2120.206 2808.086 C 2117.962 2808.086 2115.666 2808.538 2113.473 2809.475 C 2105.713 2812.822 2097.953 2816.17 2090.192 2819.517 C 2081.712 2823.166 2077.892 2832.84 2081.644 2841.092 C 2298.042 3316.83 2514.422 3792.568 2730.82 4268.307 C 2733.613 4274.466 2739.763 4278.031 2746.135 4278.031 C 2749.065 4278.031 2752.028 4277.278 2754.752 4275.671 C 2762.324 4271.202 2769.879 4266.75 2777.451 4262.281 C 2784.68 4258.03 2787.524 4249.176 2784.097 4241.644 C 2782.847 4238.933 2781.631 4236.238 2780.38 4233.527 C 2565.438 3761.621 2350.462 3289.682 2135.504 2817.777 C 2134.733 2816.103 2133.722 2814.613 2132.506 2813.341 C 2129.336 2809.977 2124.848 2808.086 2120.206 2808.086" style="fill: rgb(93, 93, 97); fill-opacity: 1; fill-rule: nonzero; stroke: none;" id="path56" transform="matrix(0.133333, 0, 0, -0.133333, 0, 1066.666748)"/>
  <path d="M 1952.631 2772.553 C 1922.738 2800.353 1905.127 2833.66 1920.904 2868.524 C 1961.865 2959.072 2002.807 3049.62 2043.767 3140.169 C 2018.071 3079.111 1992.238 3018.121 1966.25 2957.214 C 1946.498 2911.07 1936.22 2871.603 1937.23 2835.92 C 1937.778 2813.576 1942.764 2792.687 1952.631 2772.553 M 2986.893 4235.853 C 2899.817 4295.17 2813.665 4355.943 2728.439 4418.188 C 2692.584 4444.382 2665.603 4460.734 2644.052 4467.346 C 2653.577 4488.384 2663.033 4509.306 2672.558 4530.344 C 2687.565 4512.402 2706.631 4494.778 2730.032 4477.02 C 2820.706 4408.414 2912.562 4341.85 3005.617 4277.278 C 2999.399 4263.503 2993.112 4249.628 2986.893 4235.853" style="fill: rgb(93, 93, 97); fill-opacity: 1; fill-rule: nonzero; stroke: none;" id="path58" transform="matrix(0.133333, 0, 0, -0.133333, 0, 1066.666748)"/>
  <path d="M 1803.952 2544.659 C 1802.667 2547.822 1801.605 2550.885 1800.697 2553.898 C 1809.536 2582.97 1817.708 2607.34 1825.879 2627.19 C 1829.562 2629.834 1833.503 2632.278 1837.7 2634.538 L 1803.952 2544.659" style="fill: rgb(83, 128, 164); fill-opacity: 1; fill-rule: nonzero; stroke: none;" id="path60" transform="matrix(0.133333, 0, 0, -0.133333, 0, 1066.666748)"/>
  <path d="M 2344.415 2141.694 C 2276.405 2141.694 2204.867 2169.996 2149.585 2198.784 C 2005.925 2273.633 1882.908 2391.363 1809.074 2533.562 C 1807.104 2537.361 1805.408 2541.06 1803.952 2544.659 L 1837.7 2634.538 C 1860.826 2646.94 1891.011 2653.333 1920.373 2654.354 C 1923.731 2654.472 1927.174 2654.522 1930.686 2654.522 C 1949.102 2654.522 1969.591 2652.915 1990.799 2649.601 C 2008.358 2637.4 2027.921 2622.872 2049.917 2606.135 C 2105.644 2563.656 2162.074 2522.348 2219.188 2482.145 C 2265.253 2414.242 2323.241 2361.721 2401.016 2321.2 C 2462.499 2289.182 2513.018 2203.019 2432.759 2161.661 C 2405.264 2147.502 2375.199 2141.694 2344.415 2141.694" style="fill: rgb(202, 159, 108); fill-opacity: 1; fill-rule: nonzero; stroke: none;" id="path62" transform="matrix(0.133333, 0, 0, -0.133333, 0, 1066.666748)"/>
  <path d="M 2219.188 2482.145 C 2162.074 2522.348 2105.644 2563.656 2049.917 2606.135 C 2027.921 2622.872 2008.358 2637.4 1990.799 2649.601 C 2066.552 2637.734 2151.384 2604.026 2182.699 2543.722 C 2194.023 2521.913 2206.117 2501.41 2219.188 2482.145 M 1800.697 2553.898 C 1790.949 2586.652 1803.061 2610.788 1825.879 2627.19 C 1817.708 2607.34 1809.536 2582.97 1800.697 2553.898" style="fill: rgb(93, 93, 97); fill-opacity: 1; fill-rule: nonzero; stroke: none;" id="path64" transform="matrix(0.133333, 0, 0, -0.133333, 0, 1066.666748)"/>
</svg>